<?xml version="1.0" encoding="UTF-8" standalone="no"?>
<svg width="184px" height="175px" viewBox="0 0 184 175" version="1.1" xmlns="http://www.w3.org/2000/svg" xmlns:xlink="http://www.w3.org/1999/xlink">
    <!-- Generator: Sketch 42 (36781) - http://www.bohemiancoding.com/sketch -->
    <title>Artboard 2</title>
    <desc>Created with Sketch.</desc>
    <defs></defs>
    <g id="What-have-you-been-upto?" stroke="none" stroke-width="1" fill="none" fill-rule="evenodd">
        <g id="Artboard-2">
            <path d="M91.5,170 C47.5933624,170 12,134.406638 12,90.5 C12,46.5933624 47.5933624,11 91.5,11 C135.406638,11 171,46.5933624 171,90.5 C171,134.406638 135.406638,170 91.5,170 Z M91.5,152 C118.302541,152 141.100514,134.854403 149.524194,110.932932 C151.77542,104.539926 153,97.6629709 153,90.5 C153,56.5344879 125.465512,29 91.5,29 C57.5344879,29 30,56.5344879 30,90.5 C30,124.465512 57.5344879,152 91.5,152 Z" id="Combined-Shape" stroke="#000000"></path>
            <ellipse id="Oval" stroke="#000000" cx="91.5" cy="90.5" rx="79.5" ry="79.5"></ellipse>
            <g id="Group" transform="translate(28.000000, 123.000000)">
                <rect id="Rectangle" fill="#F9F9F9" x="0" y="0" width="45" height="18"></rect>
                <text id="Other" font-family="HelveticaNeue-Light, Helvetica Neue" font-size="8" font-weight="300" fill="#000000">
                    <tspan x="13.368" y="12">Other</tspan>
                </text>
            </g>
            <g id="Activity/Sleep" transform="translate(5.000000, 61.000000)">
                <rect id="Rectangle" fill="#F9F9F9" fill-rule="evenodd" x="0" y="0" width="45" height="18"></rect>
                <text id="Sleep" font-family="HelveticaNeue-Light, Helvetica Neue" font-size="8" font-weight="300" fill="#000000">
                    <tspan x="13.292" y="12">Sleep</tspan>
                </text>
            </g>
            <g id="Group" transform="translate(114.000000, 123.000000)">
                <rect id="Rectangle" fill="#F9F9F9" x="0" y="0" width="45" height="18"></rect>
                <text id="With-Others?" font-family="HelveticaNeue-Light, Helvetica Neue" font-size="8" font-weight="300" fill="#0084FF">
                    <tspan x="0.484" y="12">With Others?</tspan>
                </text>
            </g>
            <g id="Activity/exercise" transform="translate(126.000000, 61.000000)">
                <rect id="Rectangle" fill="#F9F9F9" fill-rule="evenodd" x="0" y="0" width="45" height="18"></rect>
                <text id="Exercise" font-family="HelveticaNeue-Light, Helvetica Neue" font-size="8" font-weight="300" fill="#000000">
                    <tspan x="8.552" y="12">Exercise</tspan>
                </text>
            </g>
            <g id="Activity/work" transform="translate(69.000000, 17.000000)">
                <rect id="Rectangle" fill="#F9F9F9" fill-rule="evenodd" x="0" y="0" width="45" height="18"></rect>
                <text id="Work" font-family="HelveticaNeue-Light, Helvetica Neue" font-size="8" font-weight="300" fill="#000000">
                    <tspan x="13.888" y="12">Work</tspan>
                </text>
            </g>
        </g>
    </g>
</svg>